# xmcd
#
# Track frame offsets: 
#        150
#        20105
#        41102
#        53475
#        70168
#        86671
#        108217
#        126419
#        137955
#        156777
#        173626
#        197020
#        214758
#
# Disc length: 3115 seconds
#
# Revision: 3
# Processed by: cddbd v1.5.2PL0 Copyright (c) Steve Scherf et al.
# Submitted via: ExactAudioCopy v0.99pb4
#
DISCID=b80c290d
DTITLE=Abstract Rude, Prevail and Moka Only - Code Name: Scorpion
DYEAR=2001
DGENRE=Hip-Hop
TTITLE0=Smokin' In Here
TTITLE1=Stop Biting
TTITLE2=Rifle Association
TTITLE3=And That You Can Quote
TTITLE4=Pillow Fulla Scrilla
TTITLE5=Get Stung
TTITLE6=Jam Packed
TTITLE7=Screwed On Tight
TTITLE8=To Make Millions
TTITLE9=Get What You Get
TTITLE10=Antz Out Of A Job
TTITLE11=Way Out
TTITLE12=She's Always Right
EXTD=
EXTT0=
EXTT1=
EXTT2=
EXTT3=
EXTT4=
EXTT5=
EXTT6=
EXTT7=
EXTT8=
EXTT9=
EXTT10=
EXTT11=
EXTT12=
PLAYORDER=
